<svg xmlns="http://www.w3.org/2000/svg" xmlns:xlink="http://www.w3.org/1999/xlink" width="1920" zoomAndPan="magnify" viewBox="0 0 1440 809.999993" height="1080" preserveAspectRatio="xMidYMid meet" version="1.0"><defs><clipPath id="8dfad3381e"><path d="M 484.164062 183.3125 L 596 183.3125 L 596 626.5625 L 484.164062 626.5625 Z M 484.164062 183.3125 " clip-rule="nonzero"/></clipPath><clipPath id="be557b4453"><path d="M 484.164062 183.3125 L 955.914062 183.3125 L 955.914062 626.5625 L 484.164062 626.5625 Z M 484.164062 183.3125 " clip-rule="nonzero"/></clipPath><clipPath id="d4f0732dc1"><path d="M 761 183.3125 L 873 183.3125 L 873 375 L 761 375 Z M 761 183.3125 " clip-rule="nonzero"/></clipPath><clipPath id="db50a07625"><path d="M 761 397 L 873 397 L 873 626.5625 L 761 626.5625 Z M 761 397 " clip-rule="nonzero"/></clipPath></defs><g clip-path="url(#8dfad3381e)"><path fill="#ffffff" d="M 484.164062 183.316406 L 595.003906 183.316406 L 595.003906 626.675781 L 484.164062 626.675781 Z M 484.164062 183.316406 " fill-opacity="1" fill-rule="nonzero"/></g><g clip-path="url(#be557b4453)"><path fill="#ffffff" d="M 484.164062 626.675781 C 557.601562 333.679688 907.761719 310.652344 955.832031 183.316406 C 955.832031 386.105469 702.46875 374.238281 595.003906 626.675781 Z M 484.164062 626.675781 " fill-opacity="1" fill-rule="nonzero"/></g><g clip-path="url(#d4f0732dc1)"><path fill="#ffffff" d="M 872.101562 312.828125 L 872.101562 183.316406 L 761.261719 183.316406 L 761.261719 374.238281 C 801.277344 353.167969 839.65625 334.007812 872.101562 312.828125 Z M 872.101562 312.828125 " fill-opacity="1" fill-rule="nonzero"/></g><g clip-path="url(#db50a07625)"><path fill="#ffffff" d="M 829.585938 428.078125 C 829.367188 428.242188 829.148438 428.40625 828.875 428.570312 C 786.523438 458.128906 761.261719 506.582031 761.261719 558.246094 L 761.261719 626.675781 L 872.101562 626.675781 L 872.101562 397.863281 C 858.382812 407.992188 844.121094 417.953125 829.585938 428.078125 Z M 829.585938 428.078125 " fill-opacity="1" fill-rule="nonzero"/></g></svg>